#N canvas 0 265 595 358 12;
#X obj 78 87 adc~, f 6;
#X obj 73 241 loadbang;
#X msg 73 271 \; pd dsp 1 \;;
#X obj 77 162 dac~, f 6;
#X msg 142 52 \$1 30;
#X obj 142 87 line~;
#X obj 122 127 *~;
#X obj 78 127 *~;
#X obj 142 11 r gain;
#X obj 242 8 r rvstparameter0;
#X obj 242 235 * 100;
#X obj 242 263 dbtorms;
#X obj 242 290 s gain;
#X obj 300 225 s svstparameter0;
#X obj 277 75 vsl 50 128 0 1 0 0 empty empty empty 0 -9 0 10 -262144
-1 -1 0 1;
#X msg 277 42 set \$1;
#X text 355 117 range is 0..1;
#X connect 0 0 7 0;
#X connect 0 1 6 0;
#X connect 1 0 2 0;
#X connect 4 0 5 0;
#X connect 5 0 6 1;
#X connect 5 0 7 1;
#X connect 6 0 3 1;
#X connect 7 0 3 0;
#X connect 8 0 4 0;
#X connect 9 0 10 0;
#X connect 9 0 15 0;
#X connect 10 0 11 0;
#X connect 11 0 12 0;
#X connect 14 0 13 0;
#X connect 14 0 10 0;
#X connect 15 0 14 0;
